<svg id="b8d18c3b-4b89-44fb-bc48-78deb5bcaae6" data-name="Layer 1" xmlns="http://www.w3.org/2000/svg" width="865.76" height="682.89" viewBox="0 0 865.76 682.89"><path d="M772.38,601.63c0,5.73-3.33,11.29-7.74,15a46.1,46.1,0,0,0-5,4.12c-1.45,1.61-2.42,3.91-1.67,6a5.63,5.63,0,0,0,4.61,3.26c7.44.94,14.3-5,17-11.52a32.51,32.51,0,0,0,2.9-14.6c-.36-5.25-2.27-10.24-4.14-15.1" fill="#263238"/><rect x="304.58" y="486.73" width="135.37" height="123.79" fill="#2f2e41"/><rect x="50.93" y="275.44" width="4.23" height="0.71" fill="none" stroke="#000" stroke-miterlimit="10"/><rect x="26.24" y="40.23" width="693.04" height="457.09" rx="21.21" fill="#2f2e41"/><rect x="32.59" y="46.58" width="681.4" height="445.45" rx="21.21" fill="#fff" opacity="0.2"/><rect x="39.3" y="84.75" width="667.64" height="378.79" fill="#fff"/><path d="M195.18,204.93s-16.58,5.29-12,23.28l20.1-7.05Z" fill="#f7a78d"/><rect x="47.75" y="418.67" width="641.9" height="25.39" fill="#2f2e41"/><rect x="57.78" y="426.63" width="203.46" height="9.76" fill="#d1d3d4"/><rect x="261.24" y="426.63" width="424.13" height="9.76" fill="#fff"/><circle cx="261.24" cy="431.96" r="6.88" fill="#d1d3d4"/><path d="M375.75,110.77s9.53-30.69,46.91-14.11c0,0,21.16,9.2,15.87,55.38,0,0-6,46.9,7.06,64.18,0,0,7.76,12.7,36,19.05,0,0,28.22,7.76,25.75,55.72H499.2s.35-30.68-14.46-43c0,0,9.52,29.28,8.11,43h-6.7s0-20.45-6-24.69c0,0,2.82,15.52,1.06,24.69h-4.59l-.7-9.52L473.8,291h-4.23l-19.4-39.15s-4.23-10.58-24.33-10.58c0,0-28.07,6.34-29.63-24.69l1.66-43.17-35.58,28.31s5.35,31.44-18.28,36c0,0-14.1.36-17.28,7.76l-21.16,41.27s1.41-33.15,11.29-42.32c0,0-21.52,4.93-19.87,45.14h-8.47s-10.46-46.2,34.33-58.19c0,0,34.21-10.21,30.16-40Z" fill="#2f2e41"/><g opacity="0.2"><path d="M353.59,418.69l-.82-.05c0-.42,2.78-42.17-2.52-61A65.62,65.62,0,0,1,348,346.15c-.75-7.92-.7-19,3.78-26.74l.71.41c-4.37,7.56-4.41,18.45-3.67,26.25a63.91,63.91,0,0,0,2.21,11.32C356.38,376.39,353.62,418.27,353.59,418.69Z"/></g><path d="M385.78,107.62a13.62,13.62,0,0,1,7.11-4.91,8.57,8.57,0,0,1,8.73,2.39,7.17,7.17,0,0,1,1.66,6.32A40.1,40.1,0,0,0,385.78,107.62Z" fill="#0071f2"/><path d="M432.77,182.09a43.49,43.49,0,0,0,2.42,8.82,55,55,0,0,0,3.95,8.27,57.11,57.11,0,0,0,11.61,14.22,65.14,65.14,0,0,0,7.37,5.62c.64.43,1.31.81,2,1.22s1.32.81,2,1.17l2,1.11,2.1,1c.69.35,1.4.66,2.12,1l2.15.91c1.47.52,2.91,1.12,4.4,1.58,3,.94,6,1.83,8.92,3.06a51.15,51.15,0,0,1,15.58,10.41,44.25,44.25,0,0,1,6,7.14,41.75,41.75,0,0,1,4.38,8.17,51.88,51.88,0,0,1,3.64,18,73.63,73.63,0,0,1-2,18.18A73.53,73.53,0,0,0,513,273.73,51.42,51.42,0,0,0,509.15,256a43.5,43.5,0,0,0-4.38-8,44,44,0,0,0-5.92-7,50.17,50.17,0,0,0-15.36-10.17c-2.86-1.23-5.82-2.11-8.84-3.08-1.5-.47-2.95-1.08-4.43-1.61l-2.17-.93c-.73-.3-1.45-.62-2.15-1l-2.12-1-2.06-1.13c-.7-.37-1.37-.77-2-1.19s-1.35-.8-2-1.25a59.62,59.62,0,0,1-7.39-5.74C441.09,205.5,434.61,194.19,432.77,182.09Z" fill="#2f2e41"/><path d="M434.71,168.25A85.32,85.32,0,0,0,438,178a99.69,99.69,0,0,0,4.31,9.33,84.46,84.46,0,0,0,11.48,17,61.23,61.23,0,0,0,15.72,13,55,55,0,0,0,9.35,4.07l2.45.72c.81.23,1.68.42,2.5.67,1.66.47,3.3,1,4.91,1.64a64.57,64.57,0,0,1,17.9,10.27,53.23,53.23,0,0,1,7.32,7.31,45.52,45.52,0,0,1,5.6,8.71,46.9,46.9,0,0,1,4.44,14.8c.1.86.27,1.71.31,2.57l.14,2.58A70.92,70.92,0,0,1,522.06,291a70.86,70.86,0,0,0,2-20.39l-.18-2.56c0-.85-.22-1.69-.33-2.54a48,48,0,0,0-1-5,46.44,46.44,0,0,0-3.58-9.56,47.69,47.69,0,0,0-5.58-8.54,52.34,52.34,0,0,0-7.25-7.18,63.85,63.85,0,0,0-17.71-10.08c-1.59-.61-3.21-1.17-4.84-1.64-.82-.25-1.63-.43-2.47-.67l-2.5-.74a55.57,55.57,0,0,1-9.48-4.17,60.36,60.36,0,0,1-15.83-13.2A84.79,84.79,0,0,1,442,187.5a101.47,101.47,0,0,1-4.14-9.44A86.11,86.11,0,0,1,434.71,168.25Z" fill="#2f2e41"/><path d="M721,313.06l3.21,17.34a33.6,33.6,0,0,0,22.26-.15L753,308.64s-5.7-1.14-6.39-18.72l5.82-12.17s3,5.26,5.48-.23,5.26-14.39.69-14.6-8.23.67-16-3.63-15.77-14.16-15.77-14.16l-10.73,9.59s-3.2,26.73,10.05,37c-1.88.36-.46,17.24.79,17.91C729,310.64,721,313.06,721,313.06Z" fill="#f9b499"/><path d="M734.78,237.75s-11.49-4.41-18.64,10.71S711,272,699.68,285.24s-7.36,27.32-2.1,34.89l5.93-1s-1.23-2.08,3.82-2.91,12.23-2.09,12.23-2.09l2.18-.19,5.54-3.54a82.61,82.61,0,0,0-.91-19.73s-5.4-5.43-6.87-12.36-2-23.33-2-23.33,4.69-.59,8.46-7.8C730,244,733.64,243.18,734.78,237.75Z" fill="#2f2e41"/><path d="M754.09,264c-12.27-2.91-24-9.79-28.54-19.41l9.23-6.88s19.33-9.55,27,11.8,2.67,60,2.67,60l-7.55-1.37a6.5,6.5,0,0,0-3.84.48h0a9.88,9.88,0,0,1-6.21-8.13A88.39,88.39,0,0,0,745,290,28,28,0,0,0,752,276s5.83,5.31,7.85-4C761.12,265.85,758.87,260.74,754.09,264Z" fill="#2f2e41"/><path d="M713.94,277.37a28.31,28.31,0,0,1-1.33,3.22c-1.68,3.42-4.11,6.42-5.93,9.78A31.24,31.24,0,0,0,704.56,315" fill="none" stroke="#fff" stroke-linecap="round" stroke-linejoin="round" stroke-width="0.47"/><path d="M718.79,282.57a56,56,0,0,0-2.06,29.84" fill="none" stroke="#fff" stroke-linecap="round" stroke-linejoin="round" stroke-width="0.47"/><path d="M734.88,242.89s8.32,13.67,20.15,18.49" fill="none" stroke="#fff" stroke-linecap="round" stroke-linejoin="round" stroke-width="0.47"/><path d="M737.21,240.91s15.32-.83,20.54,20.17" fill="none" stroke="#fff" stroke-linecap="round" stroke-linejoin="round" stroke-width="0.47"/><path d="M726.39,610s9.1,16.55,9.39,21-5.51,7-5.51,7l-8.19-5s-6-8.13-5.58-21.4S726.39,610,726.39,610Z" fill="#fff"/><path d="M726.64,610.67c2.93,6,6.25,12.38,9,18.82a14.91,14.91,0,0,1,1.42,5.23,5.49,5.49,0,0,1-2.13,4.77c-1.95,1.29-4.62.66-6.65-.51a19.08,19.08,0,0,1-6.14-5.92c-5.23-7.65-6.14-17.45-5.57-26.69" fill="#f9b499"/><path d="M720.62,630.58c.69,1.45,4.08,3.19,5.56,3.79a7.84,7.84,0,0,0,6.28-.07c3-1.62,1.55-5.59,1.58-8.24,0,0,6.65,10.66.57,13.81C729.23,642.66,721.82,633.92,720.62,630.58Z" fill="#263238"/><path d="M772.32,600.17s.75,8.06-7.15,15.71-6.41,5.07-3.88,8.45,12.52.6,12.52.6l5.22-5.08s6.8-12.21,2.33-21.44S772.32,600.17,772.32,600.17Z" fill="#f9b499"/><path d="M762.17,618.74h0a4.49,4.49,0,0,0,2.32,3.62,8.13,8.13,0,0,0,4.67.89A15.73,15.73,0,0,0,780,617.83S774,632,762.32,629.51,762.17,618.74,762.17,618.74Z" fill="#263238"/><path d="M690.34,439.84l-.18.78c-1.21,4.94-7,32.62,2.19,57.93,10.18,27.87,15.53,26.79,11.79,40.19s-5.67,39,12,74.39l11-.47S717,484.09,718.6,450.34h4.28s9.41,103.31,49.54,152.06l9.45-2.55s-.1-27.36-6-45.58-17.14-21.43-17.67-40.18,11.25-46.6,7.49-75l-13.12,10.76-8.62-17.8S726.53,444.53,704,425.2Z" fill="#2f2e41"/><path d="M690.34,439.84l-.18.78c-1.21,4.94-7,32.62,2.19,57.93,10.18,27.87,15.53,26.79,11.79,40.19s-5.67,39,12,74.39l11-.47S717,484.09,718.6,450.34h4.28s9.41,103.31,49.54,152.06l9.45-2.55s-.1-27.36-6-45.58-17.14-21.43-17.67-40.18,11.25-46.6,7.49-75l-13.12,10.76-8.62-17.8S726.53,444.53,704,425.2Z" opacity="0.2"/><path d="M684.49,344.3l6.9-23.33,11.87-1.92s-1.49-2.78,1.81-3,16.17-2.6,16.17-2.6L732.58,376,753,308.64s1.21-.86,4.64-.6,11.61,1.49,12.08,2.28,2.29,1.13,2.29,1.13,12.38-.41,13.3,5.48c1.69,7.11-2.42,57.34-2.42,57.34s12.41,11.88,15.28,17.36l-8.94,12.9-16.44-8.73-11.13-7.18-1.75,2.9,21.34,34.79L752.66,449.8c-2.67-4.36-5.33-9.11-7.87-14.26a179.51,179.51,0,0,1-13.65-37.89l-40.8,42.19L683.09,411l26-26.45-4.89-7.25s-9.46,17.29-14.35,17.66-14.78-12.81-15.7-14.5a1.63,1.63,0,0,1,.54-2.26A1.26,1.26,0,0,1,675,378s-7.85-11.17-5.4-14c1.6-1.7,11.51,4.11,15.81,3.11,3-.89,4.41-3.39,6.65-8-1.11-1.18-1.58-3.3-2.39-4.7Z" fill="#0071f2"/><path d="M687,365.91s5.05-6,5.6-7.71c0,0,2.91-1.21,3.62,1.7a22.32,22.32,0,0,0,2.83,7.71c1.59,2.5-.79,5.56-3.29,8.4s-3.83,6.67-6.45,6.91-12.94-4.42-12.94-4.42a6,6,0,0,1-3.87-5c-.57-4-4.14-7.13-2.92-9.67s8.59,3.17,11.77,3A4.64,4.64,0,0,0,687,365.91Z" fill="#fff" opacity="0.5" style="isolation:isolate"/><path d="M733,378.66s33.18-35.48,34.39-38.73-3.54-7.06-3.54-7.06-4.09-2.84-2.87-6.4,8.12-8.62,8.7-11.31-.63-2.81-.63-2.81S754,309,753,309.61s-8.77,29.67-8.77,29.67Z" fill="#fff" opacity="0.5" style="isolation:isolate"/><path d="M703,317.75c-.44,2.24,6.79,12.39,6.79,12.39S703.23,341,702.51,343,728.67,378,728.67,378s2,2.25,3.62,2.25.15-5.85.15-5.85l-11.2-60.86s-12.09,2.12-15.35,2.53c-1.35-.1-2.47.33-2.81,1.11A1.5,1.5,0,0,0,703,317.75Z" fill="#fff" opacity="0.5" style="isolation:isolate"/><path d="M746.47,330.25c-8.45,3.36-22.15,0-22.15,0l8.56,47.13Z" fill="#ccc"/><ellipse cx="736.39" cy="387.05" rx="2.11" ry="3.41" fill="#263238"/><path d="M702.46,426.9s20.1,15.48,42.07,8.11l-13.39-37.36Z" fill="#2f2e41"/><path d="M702.46,426.9s20.1,15.48,42.07,8.11l-13.39-37.36Z" opacity="0.2"/><polygon points="838.9 395.37 839.42 399.06 836.32 403.96 834.6 400.86 838.9 395.37" fill="#92e3a9"/><polygon points="785.06 414.28 812.43 436.46 824.8 416.67 827.23 418.53 813.06 441.39 787.46 420.01 785.06 414.28" fill="#92e3a9"/><polygon points="838.9 395.37 839.42 399.06 836.32 403.96 834.6 400.86 838.9 395.37" fill="#2f2e41"/><polygon points="785.06 414.28 812.43 436.46 824.8 416.67 827.23 418.53 813.06 441.39 787.46 420.01 785.06 414.28" fill="#2f2e41"/><polyline points="824.8 416.67 812.43 436.46 783.99 412.96 810.96 373.64 838.91 394.41 834.6 401.17" fill="#fff"/><polyline points="835.83 404.24 839.05 398.97 838.91 394.41" fill="none" stroke="#263238" stroke-linecap="round" stroke-linejoin="round" stroke-width="0.94"/><path d="M833.86,396.24a.44.44,0,0,1-.27-.09l-22.52-16.48a.45.45,0,0,1-.1-.63.46.46,0,0,1,.63-.1l22.53,16.48a.46.46,0,0,1,.09.64A.44.44,0,0,1,833.86,396.24Z" fill="#2f2e41"/><path d="M832.23,398.53a.44.44,0,0,1-.27-.09L809.44,382a.45.45,0,0,1-.1-.63.44.44,0,0,1,.63-.1l22.52,16.48a.44.44,0,0,1,.1.63A.45.45,0,0,1,832.23,398.53Z" fill="#2f2e41"/><path d="M825.53,397.85a.43.43,0,0,1-.26-.09l-17.95-13.18a.45.45,0,0,1-.09-.63.44.44,0,0,1,.63-.1L825.8,397a.45.45,0,0,1,.1.63A.44.44,0,0,1,825.53,397.85Z" fill="#2f2e41"/><path d="M830.22,404.83a.56.56,0,0,1-.27-.08L805.68,387a.45.45,0,0,1,.53-.73L830.49,404a.47.47,0,0,1,.1.64A.46.46,0,0,1,830.22,404.83Z" fill="#2f2e41"/><path d="M820.16,402.22a.5.5,0,0,1-.27-.08l-16.33-12a.45.45,0,0,1,.54-.72l16.32,12a.44.44,0,0,1,.1.63A.45.45,0,0,1,820.16,402.22Z" fill="#2f2e41"/><path d="M818.81,405.73a.43.43,0,0,1-.26-.09l-16.94-12.58a.44.44,0,0,1-.1-.63.45.45,0,0,1,.63-.1l16.94,12.58a.44.44,0,0,1,.1.63A.47.47,0,0,1,818.81,405.73Z" fill="#2f2e41"/><path d="M818.81,409.65a.42.42,0,0,1-.26-.08L800,396a.45.45,0,1,1,.53-.73l18.57,13.57a.45.45,0,0,1,.1.63A.46.46,0,0,1,818.81,409.65Z" fill="#2f2e41"/><path d="M821.12,415.5a.43.43,0,0,1-.26-.09l-22.51-16.48a.44.44,0,0,1-.1-.63.46.46,0,0,1,.63-.1l22.51,16.48a.45.45,0,0,1-.27.82Z" fill="#2f2e41"/><path d="M819.49,418.44a.46.46,0,0,1-.27-.09l-22.51-16.48a.45.45,0,0,1,.54-.73l22.51,16.48a.46.46,0,0,1,.1.63A.47.47,0,0,1,819.49,418.44Z" fill="#2f2e41"/><path d="M817.86,421.37a.45.45,0,0,1-.27-.08l-22.51-16.48a.46.46,0,0,1-.09-.64.45.45,0,0,1,.63-.09l22.51,16.48a.45.45,0,0,1-.27.81Z" fill="#2f2e41"/><path d="M673.44,364.26s9.18,4.26,12.37,3.35,6.26-8.52,6.26-8.52l-17-33.19s5.08-10,4.45-13.58-6.39-9.16-6.39-9.16L672,304.24s-8.59-15.2-10.24-14.37,3.39,10.77,3.39,10.77a3,3,0,0,0-2.41,2.81s-8.36,7.6-8.18,11.22,9.19,14.81,9.19,14.81Z" fill="#f9b499"/><path d="M835.08,407.92s1.9-4-.71-6.43-9.67-10.24-11-9.31S832,406,832,406" fill="#f9b499"/><path d="M832,406.3c-4.72-3.39-12.21-8-13.12-7-1.3,1.3,9.12,9.48,9.12,9.48s-9.31-7.44-10.62-5.95c-.79.91,3.93,4.83,7.66,8" fill="#f9b499"/><path d="M824.45,410.32c-3.13-2.88-6.38-5.57-7-4.92-1.3,1.3,8.55,13.29,10.87,13.71,2.59.45,2.66-2.84,2.66-2.84h0a4.24,4.24,0,0,0,2.91-3.55v-.43a3.62,3.62,0,0,0,1-5,3.94,3.94,0,0,0-.36-.45l-1.64-1.11s-1.63,1.55-2.58.94" fill="#f9b499"/><path d="M475.92,366.11S445.59,321,439.24,321.68a43.44,43.44,0,0,0-14.81,21.16c-4.24,13.75-109,7.4-109,7.4s-26.45,31-40.2,16.58c0,0-40.91-44.09-61-98.05l-9-18.23a13.46,13.46,0,0,0-5.38-5.75c-4.22-2.42-11-7.18-12.45-13.4,0,0-12.7,5.64-15.87-3.88,0,0,21.86-2.12,25.39-9.53,0,0,.35-12.69-12.34-21.51,0,0-10.58-5.29-7.06-14.81,0,0,32.8,21.16,36.68,33.86,0,0,4.55,32.48,10.23,38.09,0,0,52.55,50.78,57.14,68.42,0,0,2.82,2.11,9.17-7.76l36-68.78s2.12-7.52,19-8.17c0,0,19.5-3,16.51-35.61,0,0,13.45,9.57,26-5.24,0,0,6.33-7.56,9.6-23.07l-1.66,45.29s.49,25.12,26.87,23c0,0,20.51-3.11,27.09,10.18l60.59,124.91a7.85,7.85,0,0,1-3.24,10.32c-7.45,4.09-24.46,9.89-63.29,14.5" fill="#f9b499"/><path d="M333.13,239.81s-11.7,47.23-22.44,68c0,0-17.32,28.48,6.34,42.56,0,0,10,38.55,1.82,68.34H434.71s-29.83-28.92-10.28-75.83a29.93,29.93,0,0,1,7.2-13.6s-19.5,7-22.83-18.88c0,0-5.87-43.53,10-68.6l-9.21-1.95s-6.74,40.2-25.25,58.34c0,0-13.69,14.07-25.17,10.73l-7,10.74-1.11-10s-18.51-.74-17.4-29.61c0,0,1.69-16.14,12.14-42.69A85.17,85.17,0,0,0,333.13,239.81Z" fill="#0071f2"/><polygon points="405.03 269.3 341.21 301.81 341.21 237.99 405.03 269.3 405.03 269.3" fill="#fff" opacity="0.5"/><path d="M362,199.73l.58,7.29s21.29,7.76,34.45-17.17l.84-16.45S381.28,201.61,362,199.73Z" fill="#f7a78d"/><ellipse cx="372.4" cy="161.91" rx="26.63" ry="43.03" fill="#f9b499"/><path d="M477.86,365,430.07,390.1c-6.7,2.82-8.11-7.41-8.11-7.41-4.23-13.75-19.75-12.7-19.75-12.7L385,378.09a1.36,1.36,0,0,0-.78,1.23v1.16a1.37,1.37,0,0,0,1.78,1.3l17.57-5.55a1.35,1.35,0,0,1,1.33.29l3.3,3-25.87,6.38a1.37,1.37,0,0,0-1,1.61l.47,2.2a1.38,1.38,0,0,0,1.73,1l21.16-6.29L387.3,389.8a1.37,1.37,0,0,0-1,1.31h0a1.36,1.36,0,0,0,1.45,1.36l14.06-1-7.57.84a1.36,1.36,0,0,0-1.07,2l.14.28a1.38,1.38,0,0,0,1.28.75c10.65-.25,15.22,7.33,15.22,7.33,11.25,10.15,17.69,8.45,21.11,5.28,0,0,43.37-8.51,60-14.7" fill="#f9b499"/><path d="M341.21,139.59c0,8.52.84,19.42,4.57,22.32,0,0-.66-10.41,4.78-24.6,0,0,22.55-4.72,30.4-16.16,0,0,1.5,14.09,11.2,11.9,0,0-5.22,28.88,6.87,28.86l-1.38,13.68-.19,20.88s35.78-18.34,17.8-73c0,0-8.47-23.27-47.62-13.4,0,0-7.35,1.78-17.62,10.48A24.84,24.84,0,0,0,341.21,139.59Z" fill="#2f2e41"/><circle cx="405.03" cy="168.25" r="8.82" fill="#f9b499"/><path d="M274.82,602.06h178a20.46,20.46,0,0,1,20.46,20.46v0a0,0,0,0,1,0,0H254.36a0,0,0,0,1,0,0v0a20.46,20.46,0,0,1,20.46-20.46Z" fill="#2f2e41"/></svg>