<svg width="863" height="176" viewBox="0 0 863 176" fill="none" xmlns="http://www.w3.org/2000/svg">
<path d="M240 93.3H226.6V116.7H240C249 116.7 253.4 113.6 253.4 107.5V101.9C253.4 99.2 252.2 97.1 249.8 95.6C247.5 94 244.2 93.3 240 93.3ZM236.2 58.9H226.6V80.6H236.6C245.3 80.6 249.7 77.5 249.7 71.3V66.9C249.7 63.9 248.6 61.8 246.3 60.7C244 59.5 240.7 58.9 236.2 58.9ZM200.1 48.4C200.1 46.4 201.2 45.4 203.3 45.4H236.2C246.8 45.4 254.5 47.1 259.2 50.5C263.9 53.9 266.3 58.5 266.3 64.2V71.5C266.3 77.9 263.2 82.5 257 85.4C265.8 88.5 270.2 93.5 270.2 100.5V110.3C270.2 116.1 267.8 120.8 263 124.5C258.2 128.2 250.6 130 240 130H203.3C201.1 130 200.1 129 200.1 126.9V119.3C200.1 117.3 201.2 116.3 203.3 116.3H209.8V59.1H203.3C201.1 59.1 200.1 58.1 200.1 56V48.4V48.4Z" fill="#2CCE78"/>
<path d="M319.4 111.3V86.8C319.4 82.3 315.8 80.1 308.6 80.1C301.3 80.1 297.6 82.3 297.6 86.8V111.3C297.6 115.9 301.3 118.1 308.6 118.1C315.7 118.2 319.4 115.9 319.4 111.3ZM281.3 112.7V85.4C281.3 79.7 283.6 75.2 288.2 72C292.8 68.8 299.6 67.1 308.6 67.1C317.5 67.1 324.2 68.7 328.8 72C333.4 75.2 335.7 79.7 335.7 85.4V112.7C335.7 118.4 333.4 122.9 328.8 126.2C324.2 129.5 317.4 131.1 308.6 131.1C299.6 131.1 292.8 129.5 288.2 126.2C283.6 122.9 281.3 118.4 281.3 112.7Z" fill="#2CCE78"/>
<path d="M347.1 71.1C347.1 69.1 348.1 68.1 350.2 68.1H368.6C370.6 68.1 371.6 69.1 371.7 71.1L371.8 74.1C377.7 69.5 384.4 67.1 391.8 67.1C397.4 67.1 401.7 68.6 404.9 71.7C408.1 74.8 409.7 78.8 409.7 83.8V117.2H415.5C417.7 117.2 418.7 118.2 418.7 120.2V127C418.7 129.1 417.6 130.1 415.5 130.1H389.4C387.3 130.1 386.3 129.1 386.3 127V120.2C386.3 118.2 387.3 117.2 389.4 117.2H393.4V87.9C393.4 85.6 392.9 83.9 391.9 82.9C390.9 81.9 389.2 81.3 386.7 81.3C381.7 81.3 376.9 83.2 372.3 86.9V117.2H376.2C378.3 117.2 379.3 118.2 379.3 120.2V127C379.3 129.1 378.3 130.1 376.2 130.1H350.1C348 130.1 347 129.1 347 127V120.2C347 118.2 348 117.2 350.1 117.2H356.1V81.8H350.2C348.1 81.8 347.1 80.8 347.1 78.8V71.1V71.1Z" fill="#2CCE78"/>
<path d="M494.5 127C494.5 129.1 493.5 130.1 491.4 130.1H472.8C471.8 130.1 471.1 129.9 470.7 129.4C470.3 128.9 470 128.1 469.8 127L469.5 124.3C464.1 128.9 457.7 131.1 450.3 131.1C444.7 131.1 440.4 129.6 437.2 126.5C434 123.4 432.4 119.4 432.4 114.4V81.8H426.4C424.3 81.8 423.3 80.8 423.3 78.8V71.1C423.3 69.1 424.3 68.1 426.4 68.1H445.6C447.7 68.1 448.7 69.1 448.7 71.2V110.3C448.7 112.6 449.2 114.3 450.2 115.3C451.2 116.3 452.9 116.9 455.4 116.9C460 116.9 464.5 115.1 469.1 111.4V81.8H463.1C461 81.8 460 80.8 460 78.8V71.1C460 69.1 461 68.1 463.1 68.1H482.4C484.4 68.1 485.4 69.1 485.4 71.2V117.1H491.2C493.3 117.1 494.3 118.1 494.3 120.1V127H494.5Z" fill="#2CCE78"/>
<path d="M528.3 119.5C535.6 119.5 539.3 117.7 539.3 114.1V112.2C539.3 110 537.5 108.4 533.8 107.3L514.4 101.3C511.7 100.5 509.4 98.9 507.5 96.4C505.5 94 504.6 91.1 504.6 87.8V83.3C504.6 78.8 506.4 75 510 71.7C513.6 68.5 519.2 66.8 526.6 66.8C533.7 66.8 539 68.6 542.4 72.2V71C542.4 68.9 543.4 67.9 545.3 67.9H550.3C552.3 67.9 553.3 68.9 553.3 71V85.6C553.3 87.7 552.3 88.7 550.3 88.7H542.3C540.2 88.7 539.2 87.7 539.2 85.8V83.7C539.2 80 536 78.2 529.5 78.2C522.9 78.2 519.7 80 519.7 83.6V85.1C519.7 87.2 520.9 88.5 523.3 89.2L542.6 95C546.4 96.2 549.4 97.9 551.4 100.2C553.5 102.5 554.5 105.2 554.5 108.3V114.9C554.5 119.2 552.5 123 548.5 126.1C544.5 129.3 538.8 130.8 531.4 130.8C523.9 130.8 518.2 129 514.3 125.3V126.5C514.3 128.7 513.3 129.7 511.4 129.7H506.4C504.4 129.7 503.4 128.6 503.4 126.5V112.2C503.4 110 504.4 109 506.4 109H514.6C516.5 109 517.5 110 517.5 111.9V113.8C517.6 117.7 521.1 119.5 528.3 119.5Z" fill="#2CCE78"/>
<path d="M605.1 93.3H591.7V116.7H605.1C614.1 116.7 618.5 113.6 618.5 107.5V101.9C618.5 99.2 617.3 97.1 614.9 95.6C612.5 94 609.2 93.3 605.1 93.3ZM601.2 58.9H591.6V80.6H601.6C610.3 80.6 614.7 77.5 614.7 71.3V66.9C614.7 63.9 613.6 61.8 611.3 60.7C609.1 59.5 605.7 58.9 601.2 58.9ZM565.1 48.4C565.1 46.4 566.2 45.4 568.3 45.4H601.2C611.8 45.4 619.5 47.1 624.2 50.5C628.9 53.9 631.3 58.5 631.3 64.2V71.5C631.3 77.9 628.2 82.5 622 85.4C630.8 88.5 635.2 93.5 635.2 100.5V110.3C635.2 116.1 632.8 120.8 628 124.5C623.2 128.2 615.6 130 605 130H568.3C566.1 130 565.1 129 565.1 126.9V119.3C565.1 117.3 566.2 116.3 568.3 116.3H574.8V59.1H568.3C566.1 59.1 565.1 58.1 565.1 56V48.4Z" fill="#2CCE78"/>
<path d="M668.1 118.2C672.2 118.2 676.6 116.4 681.4 112.8V105.7H667.2C663.2 105.7 661.2 107.6 661.2 111.3V113.3C661.2 116.5 663.5 118.2 668.1 118.2ZM706.4 127C706.4 129.1 705.4 130.1 703.3 130.1H685.2C684 130.1 683.3 129.9 682.9 129.4C682.5 128.9 682.3 128.1 682.1 126.9L681.9 124.3C676.2 128.9 670.2 131.1 663.8 131.1C657.8 131.1 653.2 129.6 650 126.6C646.8 123.6 645.2 119.9 645.2 115.5V109.9C645.2 105.5 646.9 101.8 650.2 98.8C653.5 95.8 658.1 94.3 664 94.3H681.3V86.3C681.3 83.9 680.6 82.1 679.2 81C677.8 79.9 675.3 79.3 671.9 79.3C668.2 79.3 665.7 79.8 664.4 80.8C663 81.8 662.3 83.5 662.3 85.8V86.7C662.3 88.8 661.3 89.8 659.2 89.8H650C648 89.8 647 88.8 647 86.7V85C647 73 655.3 67.1 672 67.1C688.9 67.1 697.4 73.1 697.4 85V117.1H703.2C705.3 117.1 706.3 118.1 706.3 120.1V127H706.4Z" fill="#2CCE78"/>
<path d="M713.6 71.1C713.6 69.1 714.6 68.1 716.7 68.1H735.1C737.1 68.1 738.1 69.1 738.2 71.1L738.3 74.1C744.2 69.5 750.9 67.1 758.3 67.1C763.9 67.1 768.2 68.6 771.4 71.7C774.6 74.8 776.2 78.8 776.2 83.8V117.2H782C784.2 117.2 785.2 118.2 785.2 120.2V127C785.2 129.1 784.1 130.1 782 130.1H755.9C753.8 130.1 752.8 129.1 752.8 127V120.2C752.8 118.2 753.8 117.2 755.9 117.2H759.9V87.9C759.9 85.6 759.4 83.9 758.4 82.9C757.4 81.9 755.7 81.3 753.2 81.3C748.2 81.3 743.4 83.2 738.8 86.9V117.2H742.7C744.8 117.2 745.8 118.2 745.8 120.2V127C745.8 129.1 744.8 130.1 742.7 130.1H716.6C714.5 130.1 713.5 129.1 713.5 127V120.2C713.5 118.2 714.5 117.2 716.6 117.2H722.6V81.8H716.7C714.6 81.8 713.6 80.8 713.6 78.8V71.1V71.1Z" fill="#2CCE78"/>
<path d="M791.5 48.6C791.5 46.5 792.5 45.5 794.6 45.5H813.9C815.9 45.5 816.9 46.6 816.9 48.7V91.4H821.9L833 81.1H828.4C826.3 81.1 825.3 80.1 825.3 78.1V71.1C825.3 69.1 826.3 68.1 828.4 68.1H855.4C857.6 68.1 858.6 69.1 858.6 71.1L858.5 78.8C858.5 80.8 857.5 81.8 855.4 81.8H850.2L834.6 95.6L852.4 117.1H858.9C861.1 117.1 862.1 118.1 862.1 120.1V126.9C862.1 129 861 130 858.9 130H846.9C844.5 130 842.4 129 840.7 126.9L821 103H816.8V117.1H821.2C822.4 117.1 823.2 117.3 823.7 117.6C824.2 117.9 824.4 118.6 824.4 119.7V126.9C824.4 129 823.3 130 821.2 130H794.6C792.5 130 791.5 129 791.5 126.9V120.1C791.5 118.1 792.5 117.1 794.6 117.1H800.6V59.1H794.6C792.5 59.1 791.5 58.1 791.5 56.1V48.6V48.6Z" fill="#2CCE78"/>
<path d="M87.8 164.3C45.6 164.3 11.2 130 11.2 87.7C11.2 45.5 45.5 11.1 87.8 11.1C130 11.1 164.4 45.4 164.4 87.7C164.3 130 130 164.3 87.8 164.3ZM87.8 0C39.4 0 0 39.4 0 87.8C0 136.2 39.4 175.6 87.8 175.6C136.2 175.6 175.6 136.2 175.6 87.8C175.5 39.4 136.2 0 87.8 0ZM100.8 129.5H61V108.7L103.1 87.6C108.3 85 112.6 81.1 115.7 76.4C115.8 76.4 115.8 76.5 115.9 76.5C124.4 81.8 129.5 90.9 129.5 100.9C129.5 116.6 116.6 129.5 100.8 129.5ZM61 88.7L88 75.2C93.3 72.6 99 71.6 104.6 72.4C102.8 74.5 100.6 76.3 98.1 77.5L61 96.1V88.7ZM61 57.7L74.3 44.4C81.5 37.2 90.7 37.4 96.8 39.9C103 42.5 109.6 48.8 109.6 59C109.6 60 109.5 60.9 109.4 61.8C100.6 59.9 91.4 60.9 83.1 65.1L61.1 76.1V57.7H61ZM121.8 67C121.2 66.6 120.6 66.3 120 66C120.5 63.8 120.7 61.5 120.7 59.2C120.7 46.1 113.2 34.8 101 29.7C88.9 24.7 75.5 27.3 66.3 36.6L51.4 51.4C50.3 52.5 49.8 53.9 49.8 55.4V81.8L38 87.7C35.2 89.1 34.1 92.4 35.5 95.2C36.5 97.2 38.5 98.3 40.5 98.3C41.3 98.3 42.2 98.1 43 97.7L49.8 94.3V101.7L38 107.7C35.2 109.1 34.1 112.4 35.5 115.2C36.5 117.2 38.5 118.3 40.5 118.3C41.3 118.3 42.2 118.1 43 117.7L49.8 114.3V135.1C49.8 138.2 52.3 140.7 55.4 140.7H100.8C122.8 140.7 140.6 122.8 140.6 100.9C140.7 86.9 133.6 74.3 121.8 67Z" fill="#2CCE78"/>
</svg>
