<svg width="200" height="200" viewBox="0 0 200 200" fill="none" xmlns="http://www.w3.org/2000/svg">
<path fill-rule="evenodd" clip-rule="evenodd" d="M136.231 79.5836C136.798 77.0883 137.025 74.4795 137.025 71.8708C137.025 57.0121 128.518 44.1951 114.68 38.4105C100.956 32.7392 85.757 35.6883 75.3219 46.2368L58.4216 63.0236C57.1739 64.2713 56.6068 65.8593 56.6068 67.5606V97.5048L43.2227 104.197C40.0468 105.785 38.7991 109.528 40.3871 112.704C41.5213 114.972 43.7898 116.22 46.0583 116.22C46.9657 116.22 47.9865 115.993 48.8939 115.539L56.6068 111.683V120.076L43.2227 126.882C40.0468 128.47 38.7991 132.213 40.3871 135.389C41.5213 137.657 43.7898 138.905 46.0583 138.905C46.9657 138.905 47.9865 138.678 48.8939 138.224L56.6068 134.368V157.96C56.6068 161.476 59.4424 164.312 62.9586 164.312H114.453C139.407 164.312 159.596 144.009 159.596 119.169C159.71 103.289 151.657 88.9979 138.273 80.7179C137.592 80.2642 136.912 79.9239 136.231 79.5836ZM84.3959 55.0839L69.3104 70.1694H69.4238V91.0396L94.3772 78.5628C103.792 73.799 114.227 72.6647 124.208 74.8198C124.321 73.799 124.435 72.7782 124.435 71.6439C124.435 60.0746 116.949 52.9288 109.916 49.9798C102.998 47.1442 92.5625 46.9173 84.3959 55.0839ZM69.3104 105.331L99.9351 90.0187C105.947 87.0697 112.412 85.9354 118.764 86.8428C116.722 89.2248 114.227 91.2664 111.391 92.6275L69.3104 113.725V105.331ZM69.3104 151.608H114.453C132.375 151.608 147.006 136.977 147.006 119.169C147.006 107.826 141.222 97.5048 131.581 91.4933C131.524 91.4933 131.496 91.4649 131.467 91.4365C131.439 91.4082 131.41 91.3798 131.354 91.3798C127.838 96.7108 122.96 101.134 117.062 104.083L69.3104 128.016V151.608Z" fill="#2CCE78"/>
<path d="M99.5869 186.77C51.7217 186.77 12.7036 147.865 12.7036 99.8866C12.7036 52.0214 51.6083 13.0032 99.5869 13.0032C147.452 13.0032 186.47 51.9079 186.47 99.8866C186.357 147.865 147.452 186.77 99.5869 186.77ZM99.5869 0.413086C44.6894 0.413086 0 45.1025 0 100C0 154.898 44.6894 199.587 99.5869 199.587C154.485 199.587 199.174 154.898 199.174 100C199.06 45.1025 154.485 0.413086 99.5869 0.413086Z" fill="#2CCE78"/>
</svg>
